<mxfile host="app.diagrams.net" agent="Mozilla/5.0 (Windows NT 10.0; Win64; x64) AppleWebKit/537.36 (KHTML, like Gecko) Chrome/128.0.0.0 Safari/537.36" version="24.7.12">
  <diagram name="Page-1" id="rIoMypW3u1ZSQz-YkvvT">
    <mxGraphModel dx="613" dy="655" grid="1" gridSize="10" guides="1" tooltips="1" connect="1" arrows="1" fold="1" page="1" pageScale="1" pageWidth="850" pageHeight="1100" math="0" shadow="0">
      <root>
        <mxCell id="0" />
        <mxCell id="1" parent="0" />
        <mxCell id="-D9dOUz6xesM9-Qt8j2T-10" value="" style="edgeStyle=orthogonalEdgeStyle;rounded=0;orthogonalLoop=1;jettySize=auto;html=1;" edge="1" parent="1" source="-D9dOUz6xesM9-Qt8j2T-2">
          <mxGeometry relative="1" as="geometry">
            <mxPoint x="400" y="280" as="targetPoint" />
          </mxGeometry>
        </mxCell>
        <mxCell id="-D9dOUz6xesM9-Qt8j2T-2" value="Receive Message and Destination from Sender" style="rounded=1;whiteSpace=wrap;html=1;" vertex="1" parent="1">
          <mxGeometry x="340" y="150" width="120" height="60" as="geometry" />
        </mxCell>
        <UserObject label="Message" placeholders="1" name="Variable" id="-D9dOUz6xesM9-Qt8j2T-20">
          <mxCell style="text;html=1;strokeColor=none;fillColor=none;align=center;verticalAlign=middle;whiteSpace=wrap;overflow=hidden;" vertex="1" parent="1">
            <mxGeometry x="400" y="210" width="130" height="20" as="geometry" />
          </mxCell>
        </UserObject>
        <mxCell id="-D9dOUz6xesM9-Qt8j2T-23" value="Valid User ID" style="rhombus;whiteSpace=wrap;html=1;fontColor=#000000;fillColor=#ffffc0;strokeColor=#ff0000;" vertex="1" parent="1">
          <mxGeometry x="350" y="290" width="100" height="60" as="geometry" />
        </mxCell>
        <mxCell id="-D9dOUz6xesM9-Qt8j2T-24" value="no" style="edgeStyle=orthogonalEdgeStyle;html=1;align=left;verticalAlign=bottom;endArrow=open;endSize=8;strokeColor=#ff0000;rounded=0;entryX=0.5;entryY=0;entryDx=0;entryDy=0;" edge="1" parent="1" target="-D9dOUz6xesM9-Qt8j2T-49">
          <mxGeometry x="-1" relative="1" as="geometry">
            <mxPoint x="670" y="860" as="targetPoint" />
            <mxPoint x="449.99999999999966" y="320.0000000000001" as="sourcePoint" />
            <Array as="points">
              <mxPoint x="670" y="321" />
              <mxPoint x="670" y="775" />
            </Array>
          </mxGeometry>
        </mxCell>
        <mxCell id="-D9dOUz6xesM9-Qt8j2T-25" value="yes" style="edgeStyle=orthogonalEdgeStyle;html=1;align=left;verticalAlign=top;endArrow=open;endSize=8;strokeColor=#ff0000;rounded=0;" edge="1" source="-D9dOUz6xesM9-Qt8j2T-23" parent="1">
          <mxGeometry x="-1" relative="1" as="geometry">
            <mxPoint x="400" y="400" as="targetPoint" />
          </mxGeometry>
        </mxCell>
        <mxCell id="-D9dOUz6xesM9-Qt8j2T-43" style="edgeStyle=orthogonalEdgeStyle;rounded=0;orthogonalLoop=1;jettySize=auto;html=1;entryX=0.5;entryY=0;entryDx=0;entryDy=0;" edge="1" parent="1" source="-D9dOUz6xesM9-Qt8j2T-28" target="-D9dOUz6xesM9-Qt8j2T-40">
          <mxGeometry relative="1" as="geometry">
            <mxPoint x="400" y="510" as="targetPoint" />
          </mxGeometry>
        </mxCell>
        <mxCell id="-D9dOUz6xesM9-Qt8j2T-28" value="Retrieve IP address and attempt to connect." style="rounded=1;whiteSpace=wrap;html=1;" vertex="1" parent="1">
          <mxGeometry x="340" y="400" width="120" height="60" as="geometry" />
        </mxCell>
        <mxCell id="-D9dOUz6xesM9-Qt8j2T-29" value="" style="ellipse;html=1;shape=startState;fillColor=#000000;strokeColor=#ff0000;" vertex="1" parent="1">
          <mxGeometry x="385" y="60" width="30" height="30" as="geometry" />
        </mxCell>
        <mxCell id="-D9dOUz6xesM9-Qt8j2T-30" value="" style="edgeStyle=orthogonalEdgeStyle;html=1;verticalAlign=bottom;endArrow=open;endSize=8;strokeColor=#ff0000;rounded=0;" edge="1" source="-D9dOUz6xesM9-Qt8j2T-29" parent="1">
          <mxGeometry relative="1" as="geometry">
            <mxPoint x="400" y="150" as="targetPoint" />
          </mxGeometry>
        </mxCell>
        <mxCell id="-D9dOUz6xesM9-Qt8j2T-40" value="TCP Connection" style="rhombus;whiteSpace=wrap;html=1;fontColor=#000000;fillColor=#ffffc0;strokeColor=#ff0000;" vertex="1" parent="1">
          <mxGeometry x="345" y="520" width="110" height="70" as="geometry" />
        </mxCell>
        <mxCell id="-D9dOUz6xesM9-Qt8j2T-41" value="no" style="edgeStyle=orthogonalEdgeStyle;html=1;align=left;verticalAlign=bottom;endArrow=open;endSize=8;strokeColor=#ff0000;rounded=0;" edge="1" source="-D9dOUz6xesM9-Qt8j2T-40" parent="1">
          <mxGeometry x="-1" relative="1" as="geometry">
            <mxPoint x="550" y="770" as="targetPoint" />
            <Array as="points">
              <mxPoint x="550" y="550" />
            </Array>
          </mxGeometry>
        </mxCell>
        <mxCell id="-D9dOUz6xesM9-Qt8j2T-42" value="yes" style="edgeStyle=orthogonalEdgeStyle;html=1;align=left;verticalAlign=top;endArrow=open;endSize=8;strokeColor=#ff0000;rounded=0;" edge="1" source="-D9dOUz6xesM9-Qt8j2T-40" parent="1">
          <mxGeometry x="-1" relative="1" as="geometry">
            <mxPoint x="400" y="640" as="targetPoint" />
          </mxGeometry>
        </mxCell>
        <mxCell id="-D9dOUz6xesM9-Qt8j2T-52" value="" style="edgeStyle=orthogonalEdgeStyle;rounded=0;orthogonalLoop=1;jettySize=auto;html=1;" edge="1" parent="1" source="-D9dOUz6xesM9-Qt8j2T-44" target="-D9dOUz6xesM9-Qt8j2T-49">
          <mxGeometry relative="1" as="geometry" />
        </mxCell>
        <mxCell id="-D9dOUz6xesM9-Qt8j2T-44" value="Forward Message to Recipient." style="rounded=1;whiteSpace=wrap;html=1;" vertex="1" parent="1">
          <mxGeometry x="340" y="640" width="120" height="60" as="geometry" />
        </mxCell>
        <UserObject label="Recipient User ID" placeholders="1" name="Variable" id="-D9dOUz6xesM9-Qt8j2T-45">
          <mxCell style="text;html=1;strokeColor=none;fillColor=none;align=center;verticalAlign=middle;whiteSpace=wrap;overflow=hidden;" vertex="1" parent="1">
            <mxGeometry x="425" y="230" width="130" height="20" as="geometry" />
          </mxCell>
        </UserObject>
        <UserObject label="Recipient IP Address" placeholders="1" name="Variable" id="-D9dOUz6xesM9-Qt8j2T-46">
          <mxCell style="text;html=1;strokeColor=none;fillColor=none;align=center;verticalAlign=middle;whiteSpace=wrap;overflow=hidden;" vertex="1" parent="1">
            <mxGeometry x="440" y="460" width="130" height="20" as="geometry" />
          </mxCell>
        </UserObject>
        <mxCell id="-D9dOUz6xesM9-Qt8j2T-49" value="" style="ellipse;html=1;shape=endState;fillColor=#000000;strokeColor=#ff0000;direction=south;" vertex="1" parent="1">
          <mxGeometry x="385" y="760" width="30" height="30" as="geometry" />
        </mxCell>
        <UserObject label="Message Sent" placeholders="1" name="Variable" id="-D9dOUz6xesM9-Qt8j2T-53">
          <mxCell style="text;html=1;strokeColor=none;fillColor=none;align=center;verticalAlign=middle;whiteSpace=wrap;overflow=hidden;" vertex="1" parent="1">
            <mxGeometry x="415" y="700" width="130" height="20" as="geometry" />
          </mxCell>
        </UserObject>
      </root>
    </mxGraphModel>
  </diagram>
</mxfile>
